# Cube.obj
# Vertices
v -0.5 -0.5 -0.5
v -0.5 -0.5  0.5
v -0.5  0.5 -0.5
v -0.5  0.5  0.5
v  0.5 -0.5 -0.5
v  0.5 -0.5  0.5
v  0.5  0.5 -0.5
v  0.5  0.5  0.5

# Texture coordinates
vt 0.0 0.0
vt 0.0 1.0
vt 1.0 0.0
vt 1.0 1.0

# Normals
vn -1.0  0.0  0.0
vn  0.0 -1.0  0.0
vn  0.0  0.0 -1.0
vn  1.0  0.0  0.0
vn  0.0  1.0  0.0
vn  0.0  0.0  1.0

# Faces
# -X face
f 1/1/1 2/2/1 4/4/1
f 1/1/1 4/4/1 3/3/1
# -Y face
f 1/1/2 5/3/2 6/4/2
f 1/1/2 6/4/2 2/2/2
# -Z face
f 1/1/3 3/3/3 7/4/3
f 1/1/3 7/4/3 5/2/3
# +X face
f 5/1/4 7/3/4 8/4/4
f 5/1/4 8/4/4 6/2/4
# +Y face
f 3/1/5 4/2/5 8/4/5
f 3/1/5 8/4/5 7/3/5
# +Z face
f 2/1/6 6/3/6 8/4/6
f 2/1/6 8/4/6 4/2/6
